Coordinates
version=1
nRows=13
nColumns=40
inDegrees=yes

Units are S.I. units (second, meters, Newtons, ...)
Angles are in degrees.

endheader
time	pelvis_tilt	pelvis_list	pelvis_rotation	pelvis_tx	pelvis_ty	pelvis_tz	hip_flexion_r	hip_adduction_r	hip_rotation_r	knee_angle_r	knee_angle_r_beta	ankle_angle_r	subtalar_angle_r	mtp_angle_r	hip_flexion_l	hip_adduction_l	hip_rotation_l	knee_angle_l	knee_angle_l_beta	ankle_angle_l	subtalar_angle_l	mtp_angle_l	lumbar_extension	lumbar_bending	lumbar_rotation	arm_flex_r	arm_add_r	arm_rot_r	elbow_flex_r	pro_sup_r	wrist_flex_r	wrist_dev_r	arm_flex_l	arm_add_l	arm_rot_l	elbow_flex_l	pro_sup_l	wrist_flex_l	wrist_dev_l
     33.43000000	     -6.19472362	     -3.92689566	      6.35812657	      0.78408600	      0.91607040	      0.45803640	      7.24153320	      3.11685997	    -10.29591870	     21.06238678	     21.06238678	     20.05813709	     -3.11982769	     -0.85798448	     32.89351128	     -5.73599671	      1.87654960	     17.20416744	     17.20416744	      5.41807641	     -5.03100515	      3.82981274	    -11.33186728	      5.05975070	      2.71182988	     49.19984437	    -13.01529716	      2.13800610	     99.97350115	     44.21504251	      0.00000000	      0.00000000	    -12.55751294	     -9.37812604	      3.26749257	     40.16499895	     45.78762085	      0.00000000	      0.00000000
     33.44785714	     -6.26899210	     -4.19759444	      6.09737891	      0.78684369	      0.91506962	      0.45667393	      6.35490856	      3.44195903	    -10.17840322	     20.27221722	     20.27221722	     20.29935968	     -2.66005757	     -0.81264392	     32.80868880	     -6.03626386	      1.75265520	     17.61612158	     17.61612158	      4.87071354	     -5.31270518	      3.32189613	    -11.14573761	      4.99016054	      2.69392114	     49.88444566	    -12.54425838	      2.44086365	    100.94153350	     44.19381591	      0.00000000	      0.00000000	    -12.71646043	     -9.38897588	      3.52762270	     40.14989735	     45.76331650	      0.00000000	      0.00000000
     33.46571429	     -6.30416887	     -4.43350662	      5.81194922	      0.78972336	      0.91379899	      0.45523880	      5.57576547	      3.69941394	     -9.98579385	     19.80515716	     19.80515716	     20.62818486	     -2.33251654	     -0.83197284	     32.82752217	     -6.32907293	      1.64828051	     18.46644506	     18.46644506	      4.31811751	     -5.77445157	      2.84355598	    -11.00432565	      4.85194853	      2.71967667	     50.42460761	    -12.23568376	      2.71923408	    101.79648301	     44.16952710	      0.00000000	      0.00000000	    -12.71837078	     -9.40270078	      3.62662522	     40.12812804	     45.75597195	      0.00000000	      0.00000000
     33.48357143	     -6.29817846	     -4.66713379	      5.52969500	      0.79284179	      0.91243768	      0.45372739	      4.79014356	      3.95491697	     -9.70314516	     19.43851133	     19.43851133	     20.94387806	     -2.16425930	     -0.84945447	     32.72555977	     -6.62516707	      1.59762350	     19.22439354	     19.22439354	      2.91537485	     -6.58397193	      0.32181107	    -10.93020602	      4.69534311	      3.06398983	     50.41685986	    -12.54389379	      3.21297440	    103.73282138	     44.14874011	      0.00000000	      0.00000000	    -12.41660809	     -9.44638333	      3.75300599	     39.88360461	     45.76550110	      0.00000000	      0.00000000
     33.50142857	     -6.27021142	     -4.88127254	      5.28689375	      0.79591774	      0.91113531	      0.45207202	      4.10693501	      4.14693085	     -9.46574627	     19.31104980	     19.31104980	     21.24815450	     -2.04690001	     -0.91744946	     32.84802926	     -6.86089790	      1.71823963	     20.55034773	     20.55034773	      2.52132266	     -7.34242474	      0.06287809	    -10.84083530	      4.50429187	      2.97747194	     50.51611267	    -12.13352178	      3.27254259	    104.24115424	     44.14002654	      0.00000000	      0.00000000	    -12.24448158	     -9.52030416	      3.73135718	     39.70854910	     45.77231497	      0.00000000	      0.00000000
     33.51928571	     -6.24909856	     -5.08726294	      5.07471878	      0.79906631	      0.90996221	      0.45025862	      3.48382128	      4.31056781	     -9.19801079	     19.28626439	     19.28626439	     21.48034601	     -2.04120467	     -0.99994177	     33.01259215	     -7.04158414	      1.96530714	     21.96392334	     21.96392334	      2.22820883	     -8.20728282	     -0.21308832	    -10.76633321	      4.32379581	      2.92402168	     50.39232380	    -11.77589063	      3.33129082	    105.01503052	     44.12439121	      0.00000000	      0.00000000	    -11.91675847	     -9.59058571	      3.58232840	     39.39576954	     45.79544288	      0.00000000	      0.00000000
     33.53714286	     -6.22230025	     -5.21275946	      4.83735907	      0.80227637	      0.90911794	      0.44827006	      2.91207573	      4.35846347	     -8.85399400	     19.37294102	     19.37294102	     21.52591818	     -2.18037218	     -1.32884304	     33.07862372	     -7.08564396	      2.36096913	     23.27733573	     23.27733573	      2.07438224	     -9.33138355	     -0.26920675	    -10.74541050	      4.06089284	      3.39024688	     49.65704961	    -11.97983956	      2.87958438	    106.67630766	     44.13750001	      0.00000000	      0.00000000	    -10.83937223	     -9.39423763	      2.58989067	     38.04322345	     45.93074764	      0.00000000	      0.00000000
     33.55500000	     -6.15415489	     -5.21634577	      4.57236422	      0.80554941	      0.90875463	      0.44620013	      2.31502882	      4.22725237	     -8.57155326	     19.52769018	     19.52769018	     21.59416232	     -2.05918465	     -1.38457201	     32.95165454	     -7.07589240	      2.43763477	     24.38448142	     24.38448142	      2.17869715	     -9.90708816	     -0.42513740	    -10.76260315	      3.65037569	      3.27316550	     49.22772522	    -11.69420722	      3.02013918	    106.73343211	     44.13177946	      0.00000000	      0.00000000	    -10.30804744	     -9.67684686	      2.48224230	     38.10789772	     45.95062230	      0.00000000	      0.00000000
     33.57285714	     -6.16895623	     -5.50180615	      4.45427394	      0.80870921	      0.90818707	      0.44383639	      1.90366134	      4.34099414	     -8.61198706	     19.80926770	     19.80926770	     21.57060813	     -1.90329808	     -1.66084122	     33.24834219	     -7.11424524	      3.20456042	     25.96601913	     25.96601913	      2.49430008	    -11.21717798	     -0.06809370	    -10.63514638	      3.71044377	      3.39240979	     48.70616523	    -11.40311283	      2.85607221	    107.37361601	     44.12841451	      0.00000000	      0.00000000	     -9.83116830	     -9.69390248	      2.00715049	     37.78356857	     46.01319007	      0.00000000	      0.00000000
     33.59071429	     -6.08400473	     -5.50953271	      4.15872893	      0.81208771	      0.90839763	      0.44148165	      1.34339478	      4.14159243	     -8.44050217	     20.05541706	     20.05541706	     21.44571335	     -1.68324278	     -1.77953592	     33.00858621	     -7.03571313	      3.41301299	     26.96050623	     26.96050623	      2.96917255	    -11.97338454	     -0.04136214	    -10.69491499	      3.40171026	      3.49930745	     47.97673518	    -11.17145539	      2.92501825	    107.40301999	     44.12690805	      0.00000000	      0.00000000	     -9.25316563	     -9.93042116	      1.74319464	     37.81295584	     46.05234406	      0.00000000	      0.00000000
     33.60857143	     -6.18753237	     -5.54924184	      3.91773155	      0.81522666	      0.90863199	      0.43879160	      0.97288135	      3.84204479	     -8.74546428	     20.21545867	     20.21545867	     20.84576372	     -0.92608281	     -3.34939457	     33.07405211	     -6.79599150	      4.02101349	     28.17243348	     28.17243348	      4.59590111	    -12.77297020	      3.22309262	    -10.57164654	      3.19362667	      4.12392804	     46.82856523	    -11.34924968	      1.95179312	    108.46086608	     44.18913832	      0.00000000	      0.00000000	     -7.99856493	     -9.47260571	     -1.14655254	     36.93617039	     46.39970931	      0.00000000	      0.00000000
     33.62642857	     -6.19848877	     -5.60872854	      3.59855525	      0.81852094	      0.90915152	      0.43629828	      0.51331461	      3.64776280	     -8.63319666	     20.40848605	     20.40848605	     20.59137892	     -0.58608867	     -3.40380599	     32.81071760	     -6.74531501	      4.17233264	     28.92271092	     28.92271092	      5.09938262	    -13.44827735	      3.10288165	    -10.51892543	      3.07043765	      4.30331826	     46.13234760	    -11.14487362	      2.14724927	    108.10014361	     44.19475883	      0.00000000	      0.00000000	     -7.42676698	     -9.79637081	     -1.33076682	     37.22204280	     46.42949116	      0.00000000	      0.00000000
     33.64428571	     -6.33232908	     -5.64107649	      3.30049987	      0.82168936	      0.90970908	      0.43339291	      0.16100381	      3.24458820	     -9.14789024	     20.56810088	     20.56810088	     20.23033186	      0.81136582	     -4.08568905	     32.56449308	     -6.50364227	      4.64271857	     29.47771254	     29.47771254	      5.71805078	    -14.57634117	      3.91393905	    -10.28460583	      2.96280511	      4.67395861	     45.46177939	    -11.36951802	      2.01544931	    107.09481711	     44.24467733	      0.00000000	      0.00000000	     -6.95680686	     -9.98675406	     -2.02162620	     38.17050732	     46.51613612	      0.00000000	      0.00000000
